Coordinates
version=1
nRows=17
nColumns=40
inDegrees=yes

Units are S.I. units (second, meters, Newtons, ...)
Angles are in degrees.

endheader
time	pelvis_tilt	pelvis_list	pelvis_rotation	pelvis_tx	pelvis_ty	pelvis_tz	hip_flexion_r	hip_adduction_r	hip_rotation_r	knee_angle_r	knee_angle_r_beta	ankle_angle_r	subtalar_angle_r	mtp_angle_r	hip_flexion_l	hip_adduction_l	hip_rotation_l	knee_angle_l	knee_angle_l_beta	ankle_angle_l	subtalar_angle_l	mtp_angle_l	lumbar_extension	lumbar_bending	lumbar_rotation	arm_flex_r	arm_add_r	arm_rot_r	elbow_flex_r	pro_sup_r	wrist_flex_r	wrist_dev_r	arm_flex_l	arm_add_l	arm_rot_l	elbow_flex_l	pro_sup_l	wrist_flex_l	wrist_dev_l
     19.25500000	     -6.12259450	     -5.33917840	      3.89383534	      1.00482381	      0.93011455	      0.49885938	     11.68791955	      3.78441409	    -20.29017975	     12.98387191	     12.98387191	      9.83900497	      2.80513090	     -4.80563409	     45.07550882	    -13.73402555	      1.18482722	     63.50905292	     63.50905292	     10.15528281	    -18.15992397	     10.94700457	    -12.22033910	      6.35853685	      5.15936593	     29.67372547	    -16.44257077	     -2.08108205	     41.73161824	     45.80455727	      0.00000000	      0.00000000	     -1.55759896	     -8.36308421	      2.61521392	     28.66454204	     47.13044097	      0.00000000	      0.00000000
     19.26657143	     -6.15789374	     -5.35779339	      4.00686824	      1.00345581	      0.92977097	      0.49881666	     11.08139628	      3.93880933	    -20.10439912	     12.62728769	     12.62728769	     10.13094938	      2.58524963	     -4.97640684	     45.84884530	    -13.45480131	      1.37311156	     61.22596876	     61.22596876	     10.03012783	    -18.12022655	     11.44297323	    -12.32226375	      6.26702745	      5.16346267	     31.63617408	    -16.49438761	     -1.79842124	     43.76039700	     45.72332233	      0.00000000	      0.00000000	     -2.71589384	     -8.30172243	      2.18647727	     26.83216173	     47.16859853	      0.00000000	      0.00000000
     19.27814286	     -6.25706367	     -5.46307449	      4.12546613	      1.00216357	      0.92923180	      0.49870676	     10.49201734	      4.21272875	    -19.82813729	     12.13381619	     12.13381619	     10.12801568	      2.11457706	     -5.73702357	     46.54816115	    -13.21386474	      1.65117668	     58.73489165	     58.73489165	      9.89852637	    -17.90045933	     11.64547243	    -12.35444478	      6.29540133	      5.80347145	     32.42259066	    -17.59518572	     -0.30761491	     48.19970037	     45.48677851	      0.00000000	      0.00000000	     -2.87084863	     -7.81795055	      0.05776013	     23.57479779	     47.48083996	      0.00000000	      0.00000000
     19.28971429	     -6.32931444	     -5.53441543	      4.24033024	      1.00101465	      0.92874697	      0.49842978	      9.84761760	      4.40886757	    -19.71693195	     11.67198172	     11.67198172	     10.44045177	      2.13184237	     -5.81849864	     46.97678866	    -12.88812011	      1.95531570	     55.96136921	     55.96136921	      9.79911611	    -17.58588866	     11.89344699	    -12.37212834	      6.28742473	      5.54106455	     34.52126230	    -17.26876605	     -0.42439240	     49.96534334	     45.43988511	      0.00000000	      0.00000000	     -4.30489811	     -7.89627850	     -0.15875065	     22.73293306	     47.48285532	      0.00000000	      0.00000000
     19.30128571	     -6.40994900	     -5.67594150	      4.38465402	      1.00000984	      0.92817589	      0.49805106	      9.15735684	      4.69562244	    -19.63356228	     11.10658060	     11.10658060	     10.69876698	      2.14609522	     -5.93839389	     47.24866177	    -12.58688422	      2.35158975	     53.00331982	     53.00331982	      9.74987537	    -17.01810211	     11.95522473	    -12.37126613	      6.33095735	      5.26003533	     36.37428112	    -16.91900815	     -0.45210923	     52.17512987	     45.37195631	      0.00000000	      0.00000000	     -5.71612571	     -7.95290345	     -0.37869076	     21.95165618	     47.48650477	      0.00000000	      0.00000000
     19.31285714	     -6.47477803	     -5.83508758	      4.53441642	      0.99927641	      0.92753090	      0.49754511	      8.37611696	      5.01113881	    -19.57795439	     10.43185667	     10.43185667	     10.92772036	      2.23092034	     -6.12119497	     47.30335982	    -12.30256109	      2.75867265	     49.87404569	     49.87404569	      9.72307539	    -16.20539704	     11.82700108	    -12.34241653	      6.43588321	      5.01335726	     37.97740337	    -16.64842527	     -0.41695330	     54.95372490	     45.28116152	      0.00000000	      0.00000000	     -7.09137947	     -7.98042239	     -0.63622476	     21.35572117	     47.49518424	      0.00000000	      0.00000000
     19.32442857	     -6.58711190	     -6.03367803	      4.63268718	      0.99872796	      0.92673419	      0.49698248	      7.63040247	      5.36036296	    -19.52015139	      9.73536322	      9.73536322	     11.01446186	      2.35428470	     -6.70312402	     47.17921663	    -12.11770738	      3.06176344	     46.53659652	     46.53659652	      9.40368115	    -15.28274044	     10.84206996	    -12.31562848	      6.56877995	      5.57774716	     38.41573732	    -17.45381779	     -0.29941321	     60.01193477	     45.11399851	      0.00000000	      0.00000000	     -8.16140449	     -8.03092861	     -1.40775724	     21.43672296	     47.56265495	      0.00000000	      0.00000000
     19.33600000	     -6.62271408	     -6.17287933	      4.74637279	      0.99849972	      0.92602375	      0.49624731	      6.79643772	      5.62783930	    -19.50203587	      9.10709458	      9.10709458	     11.29660119	      2.60231851	     -6.77749824	     46.76520012	    -11.86749731	      3.33232621	     43.16052883	     43.16052883	      9.59405766	    -14.14427332	     11.07869210	    -12.22811073	      6.62990215	      5.30493741	     39.99210463	    -16.96154111	     -0.42219713	     62.07858708	     45.05852116	      0.00000000	      0.00000000	     -9.45996154	     -8.05154316	     -1.49383508	     20.91939390	     47.53739969	      0.00000000	      0.00000000
     19.34757143	     -6.68294411	     -6.41689679	      4.84728152	      0.99857154	      0.92507996	      0.49541758	      5.93049012	      6.00777932	    -19.59957588	      8.38769052	      8.38769052	     11.54832407	      3.08973693	     -6.96013793	     46.26396873	    -11.75732700	      3.51802483	     39.82709737	     39.82709737	      9.72685394	    -12.94952596	     11.20561931	    -12.16270625	      6.82241891	      5.55380029	     40.56042109	    -17.23109888	     -0.72549052	     66.55135816	     44.94132352	      0.00000000	      0.00000000	    -10.75261556	     -8.10942815	     -1.85355211	     21.49353302	     47.50287442	      0.00000000	      0.00000000
     19.35914286	     -6.69991022	     -6.61644552	      4.91992904	      0.99900673	      0.92411944	      0.49446817	      5.03568036	      6.31794677	    -19.66649684	      7.77209173	      7.77209173	     11.87587955	      3.56429540	     -6.95664566	     45.53664236	    -11.64889563	      3.52568375	     36.57097818	     36.57097818	      9.98692411	    -11.85093548	     11.86703590	    -12.06174758	      6.97107330	      5.59378956	     41.44606634	    -17.07417137	     -1.00176662	     69.95926397	     44.86489253	      0.00000000	      0.00000000	    -12.04697084	     -8.15394201	     -1.93453621	     21.75088543	     47.41779478	      0.00000000	      0.00000000
     19.37071429	     -6.69348753	     -6.77730642	      4.95220433	      0.99975467	      0.92305336	      0.49339617	      4.14885020	      6.57072181	    -19.62053162	      7.26894622	      7.26894622	     12.25195382	      3.89786561	     -6.97637688	     44.61155570	    -11.54226677	      3.32397287	     33.42464861	     33.42464861	     10.13325298	    -10.99644804	     12.54270672	    -11.87885864	      7.08211907	      5.32331542	     42.67277176	    -16.50836823	     -1.05752694	     72.14558795	     44.80561907	      0.00000000	      0.00000000	    -13.30605378	     -8.11797912	     -1.93498056	     21.57406836	     47.37080970	      0.00000000	      0.00000000
     19.38228571	     -6.66430907	     -6.98074587	      4.98790353	      1.00085790	      0.92181342	      0.49217657	      3.21540199	      6.85354936	    -19.64089266	      6.77573416	      6.77573416	     12.66433790	      4.37402681	     -6.92066066	     43.62534799	    -11.48374501	      2.98646964	     30.60160206	     30.60160206	     10.23315091	    -10.35389472	     13.34183957	    -11.70346963	      7.24362746	      5.08402170	     43.56015841	    -16.01482231	     -1.11067800	     75.15714670	     44.72011470	      0.00000000	      0.00000000	    -14.64227115	     -8.04207260	     -1.97506742	     21.85081735	     47.32111885	      0.00000000	      0.00000000
     19.39385714	     -6.63442995	     -7.08787746	      4.97316112	      1.00226250	      0.92049825	      0.49082086	      2.34796436	      6.98995530	    -19.58602677	      6.48098208	      6.48098208	     13.17029363	      4.70945623	     -6.86671354	     42.51302951	    -11.38632786	      2.30253455	     28.03343092	     28.03343092	     10.14028285	     -9.91370753	     14.12072693	    -11.47784768	      7.30010199	      4.97669874	     44.31202527	    -15.62727739	     -1.15479320	     77.86326301	     44.64322354	      0.00000000	      0.00000000	    -15.85812434	     -8.00624248	     -2.01202370	     22.13780199	     47.27828588	      0.00000000	      0.00000000
     19.40542857	     -6.66121275	     -7.35016041	      5.00161909	      1.00390071	      0.91883702	      0.48925402	      1.57778458	      7.24931220	    -19.74613188	      6.28106771	      6.28106771	     13.84188530	      5.33725255	     -6.36005911	     41.58423290	    -11.34692362	      1.74856874	     26.01429128	     26.01429128	      9.99211181	     -9.83619841	     14.91953513	    -11.24988726	      7.56110941	      5.16162301	     44.26225385	    -15.74506763	     -1.44993113	     83.01729714	     44.50860299	      0.00000000	      0.00000000	    -17.18206814	     -7.98473029	     -2.03969834	     23.59407717	     47.19502120	      0.00000000	      0.00000000
     19.41700000	     -6.63586866	     -7.42639710	      4.94558957	      1.00577015	      0.91727388	      0.48757794	      0.85061825	      7.26261371	    -19.64616503	      6.34300953	      6.34300953	     14.57007860	      5.54206527	     -5.90189774	     40.46755771	    -11.22788714	      0.81325705	     24.26411989	     24.26411989	      9.52129052	     -9.85021902	     15.27169393	    -10.98151964	      7.59254908	      5.20868774	     44.54291661	    -15.55412755	     -1.69189200	     86.31697060	     44.43535619	      0.00000000	      0.00000000	    -18.21113615	     -7.95011847	     -1.81253728	     24.08521077	     47.08941623	      0.00000000	      0.00000000
     19.42857143	     -6.61761919	     -7.45994963	      4.88471340	      1.00776732	      0.91563898	      0.48575711	      0.19460046	      7.19223109	    -19.53298003	      6.56910851	      6.56910851	     15.46392158	      5.70957760	     -5.06878498	     39.35271184	    -11.05894611	     -0.15829949	     22.83601076	     22.83601076	      8.60341014	    -10.06216873	     14.82985827	    -10.70939394	      7.58777008	      5.52914665	     44.54396270	    -15.69983874	     -2.04223941	     89.94920363	     44.37320390	      0.00000000	      0.00000000	    -19.06474291	     -7.97715137	     -1.32947222	     24.77740010	     46.92508549	      0.00000000	      0.00000000
     19.44014286	     -6.57756711	     -7.42012941	      4.83221743	      1.00985429	      0.91402125	      0.48378267	     -0.43956051	      7.01937787	    -19.29898402	      6.88078120	      6.88078120	     16.12982116	      5.57849241	     -4.94738137	     38.31481861	    -10.84511471	     -1.16310169	     21.90509215	     21.90509215	      7.78587177	    -10.18192389	     14.83251444	    -10.40120291	      7.50023525	      5.08690453	     45.09368103	    -14.98694306	     -1.93375664	     92.04550061	     44.31669633	      0.00000000	      0.00000000	    -19.84308473	     -7.78754365	     -1.13242507	     24.61838050	     46.86161378	      0.00000000	      0.00000000
